<svg xmlns="http://www.w3.org/2000/svg" viewBox="0 0 80 80"><path fill="#fff" d="M12.5 75.5v-71h37.3l17.7 17.7v53.3z"/><path fill="#788b9c" d="M49.6 5L67 22.4V75H13V5h36.6m.4-1H12v72h56V22L50 4z"/><path fill="#c5d4de" d="M47.7 76H68V42.9c-.3-.1-.7-.2-1-.3V75H46.8c.3.3.6.7.9 1z"/><path fill="#bae0bd" d="M62 79.5c-9.6 0-17.5-7.9-17.5-17.5S52.4 44.5 62 44.5 79.5 52.4 79.5 62 71.6 79.5 62 79.5z"/><path fill="#5e9c76" d="M62 45c9.4 0 17 7.6 17 17s-7.6 17-17 17-17-7.6-17-17 7.6-17 17-17m0-1c-9.9 0-18 8.1-18 18s8.1 18 18 18 18-8.1 18-18-8.1-18-18-18z"/><path fill="#fff" d="M60 52h4v20h-4z"/><path fill="#fff" d="M52 60h20v4H52zM49.5 22.5v-18h.3l17.7 17.7v.3z"/><path fill="#788b9c" d="M50 5.4L66.6 22H50V5.4M50 4h-1v19h19v-1L50 4z"/></svg>