<svg xmlns="http://www.w3.org/2000/svg" viewBox="0 0 80 80"><path fill="#fff" d="M6.5 75.5v-71h37.3l17.7 17.7v53.3z"/><path fill="#788b9c" d="M43.6 5L61 22.4V75H7V5h36.6m.4-1H6v72h56V22L44 4z"/><path fill="#fff" d="M42.5 23.5v-19h1.3l17.7 17.7v1.3z"/><path fill="#788b9c" d="M43.6 5L61 22.4v.6H43V5h.6m.4-1h-2v20h20v-2L44 4z"/><path fill="#d6e3ed" d="M61 42v33h-3l.8 1H62V42z"/><path fill="#9cacbd" d="M49 60.5h9.5v-16h11v16H79L64 79.2z"/><path fill="#36404d" d="M69 45v16h8.9L64 78.4 50.1 61H59V45h10m1-1H58v16H48l16 20 16-20H70V44z"/><path fill="#c74343" d="M17.4 59.5c-1.1 0-2.9-.7-2.9-3.1 0-2.2 4.9-4.8 11.1-6.8 2.4-4.2 4.5-9.4 5.8-14.1-2.4-4.4-4.1-8.5-4.1-10.8 0-2.1 1.3-2.3 1.9-2.3 1.5 0 2.6.6 3.3 1.8.6 1 1 2.5 1 4.3 0 2-.4 4.3-1 6.8 2.2 3.9 5.1 7.9 8 10.8 4.1-.5 7.4-.5 9.2.1 1.5.5 1.8 1.4 1.8 2.1 0 2.1-1.4 3.3-3.7 3.3-2.4 0-5.1-1.8-7.8-4.5-4.4.6-9.4 1.8-13.7 3.1-2.9 5.4-6.3 9.3-8.9 9.3zm7.5-8.6c-5.4 1.8-9.4 3.9-9.4 5.5 0 1.9 1.4 2.1 1.9 2.1 2 0 4.8-3.1 7.5-7.6zm16.5-3.8c2.3 2.2 4.6 3.7 6.4 3.7 1.8 0 2.7-.8 2.7-2.3 0-.2 0-.7-1.1-1.1-.8-.3-2.1-.5-3.7-.5-1.4 0-2.8.1-4.3.2zm-9.3-10.3c-1.2 4.1-3 8.5-5 12.4C31 48 35.3 47 39.2 46.4c-2.6-2.7-5.1-6.2-7.1-9.6zm-2.9-13.3c-.3 0-.9 0-.9 1.3 0 2.1 1.4 5.5 3.4 9.3.5-2 .7-3.9.7-5.6 0-1.6-.3-2.9-.8-3.8-.5-.8-1.3-1.2-2.4-1.2z"/></svg>