<svg xmlns="http://www.w3.org/2000/svg" viewBox="0 0 80 80"><path fill="#fff" d="M10.5 75.5v-71h37.3l17.7 17.7v53.3z"/><path fill="#c74343" d="M47.6 5L65 22.4V75H11V5h36.6m.4-1H10v72h56V22L48 4z"/><path fill="#ffd9d9" d="M47.5 22.5v-18h.3l17.7 17.7v.3z"/><path fill="#c74343" d="M48 5.4L64.6 22H48V5.4M48 4h-1v19h19v-1L48 4zM24.3 60c-1.4 0-2.3-1.1-2.3-2.1 0-2.7 3.6-5 8.3-6.6 2-3.5 3.9-7.9 5.2-11.9-1.1-2.9-1.8-5.6-1.8-7.5 0-1.1.2-2 .6-2.6.5-.8 1.3-1.3 2.2-1.3.9 0 1.6.5 2 1.3.3.6.5 1.4.5 2.5 0 1.9-.5 4.6-1.5 7.7 1.3 3.3 3.3 6.7 5.6 9.2 3.6-.3 6.5-.2 8.3.4 2 .7 2.5 1.8 2.5 2.7 0 .9-.4 2.9-3.7 2.9-2.8 0-5.5-1.6-7.8-3.9-3.7.4-7.5 1.2-10.7 2.3-2.4 3.9-5 6.9-7.4 6.9zm-.3-2.1s.1.1.3.1c1.1 0 2.6-1.5 4.2-3.8-2.7 1.2-4.5 2.5-4.5 3.7zm21.2-7.4c1.6 1.3 3.3 2.1 5.1 2.1 1.7 0 1.7-.6 1.7-.9 0-.4-.8-.7-1.1-.8-1-.3-2.4-.5-4.2-.5-.5.1-1 .1-1.5.1zm-8.5-8.3c-1 2.8-2.2 5.7-3.6 8.3 2.5-.7 5.2-1.2 7.7-1.5-1.6-2.1-3-4.5-4.1-6.8zM36.5 30c-.2 0-.3 0-.5.3-.1.2-.3.7-.3 1.6 0 1.2.2 2.6.7 4.2.4-1.7.6-3.2.6-4.4 0-.9-.2-1.4-.2-1.6-.1-.1-.2-.1-.3-.1z"/></svg>