<svg xmlns="http://www.w3.org/2000/svg" viewBox="0 0 80 80"><path fill="#fff" d="M12.5 75.5v-71h37.293L67.5 22.207V75.5z"/><path fill="#c74343" d="M49.586 5L67 22.414V75H13V5h36.586M50 4H12v72h56V22L50 4z"/><path fill="#ffd9d9" d="M49.5 22.5v-18h.293L67.5 22.207v.293z"/><path fill="#c74343" d="M50 5.414L66.586 22H50V5.414M50 4h-1v19h19v-1L50 4zM24.088 35.072c.962-.208 2.262-.338 3.562-.338 2.028 0 3.64.286 4.758 1.352 1.04.91 1.508 2.366 1.508 3.849 0 1.897-.572 3.25-1.482 4.212-1.092 1.17-2.834 1.69-4.264 1.69-.234 0-.442 0-.676-.026v6.526h-3.406V35.072zm3.406 7.983c.182.025.364.025.572.025 1.716 0 2.47-1.222 2.47-2.859 0-1.534-.624-2.73-2.21-2.73a2.54 2.54 0 00-.832.13v5.434zm8.476-7.983c.858-.208 2.106-.338 3.458-.338 2.21 0 3.744.52 4.862 1.56 1.508 1.353 2.288 3.667 2.288 7.072 0 3.536-.91 6.059-2.444 7.411-1.196 1.117-2.912 1.689-5.33 1.689-1.092 0-2.158-.104-2.834-.208V35.072zm3.406 14.561c.182.052.416.052.598.052 1.638 0 3.068-1.612 3.068-6.448 0-3.588-.936-5.771-2.99-5.771-.234 0-.468 0-.676.077v12.09zm9.359-14.821h7.619v2.964h-4.212v4.498h3.952v2.834h-3.952v7.229h-3.406V34.812z"/></svg>